<mxfile host="app.diagrams.net" agent="Mozilla/5.0 (Macintosh; Intel Mac OS X 10_15_7) AppleWebKit/605.1.15 (KHTML, like Gecko) Version/18.5 Safari/605.1.15" version="27.1.6">
  <diagram name="Page-1" id="Jo4s_xSjX232r70IKemJ">
    <mxGraphModel dx="920" dy="590" grid="1" gridSize="10" guides="1" tooltips="1" connect="1" arrows="1" fold="1" page="1" pageScale="1" pageWidth="850" pageHeight="1100" math="0" shadow="0">
      <root>
        <mxCell id="0" />
        <mxCell id="1" parent="0" />
        <mxCell id="g5nJzX0wN5Kj-0BxlK2D-1" value="MSSQL Version?" style="rhombus;whiteSpace=wrap;html=1;rounded=1;shadow=1;fontFamily=Helvetica;fontSize=14;fillColor=#dae8fc;strokeColor=#6c8ebf;" parent="1" vertex="1">
          <mxGeometry x="360" y="40" width="160" height="80" as="geometry" />
        </mxCell>
        <mxCell id="g5nJzX0wN5Kj-0BxlK2D-6" value="SQL Server 2008 - 2014" style="edgeStyle=orthogonalEdgeStyle;rounded=0;orthogonalLoop=1;jettySize=auto;html=1;exitX=0.5;exitY=1;exitDx=0;exitDy=0;entryX=0.5;entryY=0;entryDx=0;entryDy=0;" parent="1" source="g5nJzX0wN5Kj-0BxlK2D-1" target="g5nJzX0wN5Kj-0BxlK2D-7" edge="1">
          <mxGeometry relative="1" as="geometry">
            <mxPoint x="440" y="130" as="sourcePoint" />
          </mxGeometry>
        </mxCell>
        <mxCell id="g5nJzX0wN5Kj-0BxlK2D-7" value="ReHost to EC2&lt;div&gt;(export/import)&lt;/div&gt;" style="rounded=1;whiteSpace=wrap;html=1;shadow=1;fontFamily=Helvetica;fontSize=12;fillColor=#d5e8d4;strokeColor=#82b366;" parent="1" vertex="1">
          <mxGeometry x="380" y="160" width="120" height="60" as="geometry" />
        </mxCell>
        <mxCell id="g5nJzX0wN5Kj-0BxlK2D-8" value="" style="endArrow=classic;html=1;rounded=0;exitX=0.5;exitY=1;exitDx=0;exitDy=0;entryX=0.5;entryY=0;entryDx=0;entryDy=0;" parent="1" source="g5nJzX0wN5Kj-0BxlK2D-7" target="g5nJzX0wN5Kj-0BxlK2D-9" edge="1">
          <mxGeometry width="50" height="50" relative="1" as="geometry">
            <mxPoint x="440" y="230" as="sourcePoint" />
            <mxPoint x="440" y="260" as="targetPoint" />
          </mxGeometry>
        </mxCell>
        <mxCell id="g5nJzX0wN5Kj-0BxlK2D-9" value="CommVault Backup" style="shape=parallelogram;perimeter=parallelogramPerimeter;whiteSpace=wrap;html=1;fixedSize=1;shadow=1;fontFamily=Helvetica;fontSize=12;fillColor=#ffe6cc;strokeColor=#d79b00;" parent="1" vertex="1">
          <mxGeometry x="380" y="260" width="120" height="60" as="geometry" />
        </mxCell>
        <mxCell id="g5nJzX0wN5Kj-0BxlK2D-10" value="SQL Server 2016+" style="edgeStyle=orthogonalEdgeStyle;rounded=0;orthogonalLoop=1;jettySize=auto;html=1;exitX=1;exitY=0.5;exitDx=0;exitDy=0;entryX=0.5;entryY=0;entryDx=0;entryDy=0;" parent="1" source="g5nJzX0wN5Kj-0BxlK2D-1" target="g5nJzX0wN5Kj-0BxlK2D-11" edge="1">
          <mxGeometry relative="1" as="geometry" />
        </mxCell>
        <mxCell id="g5nJzX0wN5Kj-0BxlK2D-11" value="ReHost to EC2 as Exception?" style="rhombus;whiteSpace=wrap;html=1;rounded=1;shadow=1;fontFamily=Helvetica;fontSize=14;fillColor=#dae8fc;strokeColor=#6c8ebf;" parent="1" vertex="1">
          <mxGeometry x="580" y="150" width="200" height="100" as="geometry" />
        </mxCell>
        <mxCell id="g5nJzX0wN5Kj-0BxlK2D-12" value="Yes (Exception)" style="edgeStyle=orthogonalEdgeStyle;rounded=0;orthogonalLoop=1;jettySize=auto;html=1;exitX=1;exitY=0.5;exitDx=0;exitDy=0;entryX=0.5;entryY=0;entryDx=0;entryDy=0;" parent="1" source="g5nJzX0wN5Kj-0BxlK2D-11" target="g5nJzX0wN5Kj-0BxlK2D-13" edge="1">
          <mxGeometry relative="1" as="geometry" />
        </mxCell>
        <mxCell id="g5nJzX0wN5Kj-0BxlK2D-13" value="ReHost to EC2&lt;div&gt;(export/import)&lt;br&gt;&lt;/div&gt;" style="rounded=1;whiteSpace=wrap;html=1;shadow=1;fontFamily=Helvetica;fontSize=12;fillColor=#d5e8d4;strokeColor=#82b366;" parent="1" vertex="1">
          <mxGeometry x="830" y="270" width="120" height="60" as="geometry" />
        </mxCell>
        <mxCell id="g5nJzX0wN5Kj-0BxlK2D-14" value="" style="endArrow=classic;html=1;rounded=0;exitX=0.5;exitY=1;exitDx=0;exitDy=0;entryX=0.5;entryY=0;entryDx=0;entryDy=0;" parent="1" source="g5nJzX0wN5Kj-0BxlK2D-13" target="g5nJzX0wN5Kj-0BxlK2D-15" edge="1">
          <mxGeometry width="50" height="50" relative="1" as="geometry">
            <mxPoint x="930" y="380" as="sourcePoint" />
            <mxPoint x="890" y="360" as="targetPoint" />
          </mxGeometry>
        </mxCell>
        <mxCell id="g5nJzX0wN5Kj-0BxlK2D-15" value="CommVault Backup" style="shape=parallelogram;perimeter=parallelogramPerimeter;whiteSpace=wrap;html=1;fixedSize=1;shadow=1;fontFamily=Helvetica;fontSize=12;fillColor=#ffe6cc;strokeColor=#d79b00;" parent="1" vertex="1">
          <mxGeometry x="830" y="370" width="120" height="60" as="geometry" />
        </mxCell>
        <mxCell id="g5nJzX0wN5Kj-0BxlK2D-16" value="No (Default)" style="edgeStyle=orthogonalEdgeStyle;rounded=0;orthogonalLoop=1;jettySize=auto;html=1;exitX=0.5;exitY=1;exitDx=0;exitDy=0;" parent="1" source="g5nJzX0wN5Kj-0BxlK2D-11" edge="1">
          <mxGeometry relative="1" as="geometry">
            <mxPoint x="680" y="270" as="targetPoint" />
          </mxGeometry>
        </mxCell>
        <mxCell id="g5nJzX0wN5Kj-0BxlK2D-17" value="RePlatform to RDS" style="rounded=1;whiteSpace=wrap;html=1;shadow=1;fontFamily=Helvetica;fontSize=12;fillColor=#d5e8d4;strokeColor=#82b366;" parent="1" vertex="1">
          <mxGeometry x="620" y="270" width="120" height="60" as="geometry" />
        </mxCell>
        <mxCell id="g5nJzX0wN5Kj-0BxlK2D-18" value="" style="endArrow=classic;html=1;rounded=0;exitX=0.5;exitY=1;exitDx=0;exitDy=0;entryX=0.5;entryY=0;entryDx=0;entryDy=0;" parent="1" source="g5nJzX0wN5Kj-0BxlK2D-17" target="g5nJzX0wN5Kj-0BxlK2D-19" edge="1">
          <mxGeometry width="50" height="50" relative="1" as="geometry">
            <mxPoint x="720" y="380" as="sourcePoint" />
            <mxPoint x="680" y="360" as="targetPoint" />
          </mxGeometry>
        </mxCell>
        <mxCell id="g5nJzX0wN5Kj-0BxlK2D-19" value="AWS Backup" style="shape=parallelogram;perimeter=parallelogramPerimeter;whiteSpace=wrap;html=1;fixedSize=1;shadow=1;fontFamily=Helvetica;fontSize=12;fillColor=#ffe6cc;strokeColor=#d79b00;" parent="1" vertex="1">
          <mxGeometry x="620" y="370" width="120" height="60" as="geometry" />
        </mxCell>
        <mxCell id="EoKI-hTswn0CEsR5NiW9-21" value="Warning, BYOL only available for dedicated hosts" style="text;html=1;align=center;verticalAlign=middle;resizable=0;points=[];autosize=1;strokeColor=none;fillColor=none;" vertex="1" parent="1">
          <mxGeometry x="535" y="430" width="290" height="30" as="geometry" />
        </mxCell>
      </root>
    </mxGraphModel>
  </diagram>
</mxfile>
